<?xml version="1.0" encoding="utf-8"?>
<!-- Generator: Adobe Illustrator 24.3.0, SVG Export Plug-In . SVG Version: 6.00 Build 0)  -->
<svg version="1.1" id="Camada_1" xmlns="http://www.w3.org/2000/svg"  x="0px" y="0px"
	 viewBox="0 0 100 100" style="enable-background:new 0 0 100 100;" xml:space="preserve">
<g>
	<path class="st0" d="M7.84,37.12c1.34,0,2,0.74,2,2.11v4.32c0,1.37-0.66,2.11-2,2.11H5.72v-8.54H7.84z M7.06,44.45h0.76
		c0.43,0,0.68-0.22,0.68-0.83v-4.44c0-0.61-0.26-0.83-0.68-0.83H7.06V44.45z"/>
	<path class="st0" d="M13.88,40.73v1.22h-1.84v2.5h2.32v1.22H10.7v-8.54h3.66v1.22h-2.32v2.38H13.88z"/>
	<path class="st0" d="M18.25,37.12h1.23l-1.32,8.54h-2l-1.32-8.54h1.35l1.03,6.97L18.25,37.12z"/>
	<path class="st0" d="M23.29,40.73v1.22h-1.84v2.5h2.32v1.22H20.1v-8.54h3.66v1.22h-2.32v2.38H23.29z"/>
	<path class="st0" d="M25.94,37.12v7.32h2.21v1.22H24.6v-8.54H25.94z"/>
	<path class="st0" d="M30.67,37.03c1.32,0,2.04,0.78,2.04,2.15v4.44c0,1.37-0.72,2.15-2.04,2.15c-1.32,0-2.04-0.78-2.04-2.15v-4.44
		C28.63,37.81,29.35,37.03,30.67,37.03z M30.67,44.55c0.43,0,0.7-0.23,0.7-0.84v-4.61c0-0.61-0.27-0.84-0.7-0.84
		c-0.43,0-0.7,0.23-0.7,0.84v4.61C29.97,44.31,30.24,44.55,30.67,44.55z"/>
	<path class="st0" d="M37.55,39.24v1.11c0,1.37-0.66,2.11-2,2.11h-0.64v3.21h-1.34v-8.54h1.98C36.9,37.12,37.55,37.87,37.55,39.24z
		 M34.92,41.24h0.64c0.43,0,0.66-0.2,0.66-0.81v-1.28c0-0.61-0.23-0.81-0.66-0.81h-0.64V41.24z"/>
	<path class="st0" d="M41.37,40.73v1.22h-1.84v2.5h2.32v1.22h-3.66v-8.54h3.66v1.22h-2.32v2.38H41.37z"/>
	<path class="st0" d="M44.8,37.12c1.34,0,2,0.74,2,2.11v4.32c0,1.37-0.66,2.11-2,2.11h-2.12v-8.54H44.8z M44.02,44.45h0.76
		c0.43,0,0.68-0.22,0.68-0.83v-4.44c0-0.61-0.26-0.83-0.68-0.83h-0.76V44.45z"/>
	<path class="st0" d="M53.57,39.09v0.31c0,0.88-0.27,1.44-0.87,1.72c0.72,0.28,1,0.93,1,1.83v0.7c0,1.32-0.7,2.03-2.04,2.03h-2.11
		v-8.54h2.03C52.97,37.12,53.57,37.77,53.57,39.09z M50.89,40.6h0.52c0.5,0,0.81-0.22,0.81-0.9v-0.48c0-0.61-0.21-0.88-0.68-0.88
		h-0.65V40.6z M50.89,44.45h0.77c0.45,0,0.7-0.21,0.7-0.84v-0.74c0-0.79-0.26-1.04-0.87-1.04h-0.6V44.45z"/>
	<path class="st0" d="M53.89,37.12h1.4l1.03,3.89l1.03-3.89h1.28l-1.7,5.71v2.83h-1.34v-2.83L53.89,37.12z"/>
</g>
<g>
	<path id="Path_194_3_" class="st0" d="M10.04,59.5l1.12,3.77h3.55l-4.53-14.68H5.86L1.4,63.27h3.42l1.04-3.77H10.04L10.04,59.5z
		 M6.34,57.02L7.2,53.9c0.24-0.85,0.45-1.96,0.67-2.83h0.04c0.21,0.87,0.48,1.96,0.74,2.83l0.91,3.12H6.34L6.34,57.02z M14.5,63.27
		h9.12v-2.79h-5.8V48.59H14.5V63.27z M32.08,54.36h-5.37v-3.05h5.69v-2.72H23.4v14.68h9.31v-2.72h-6v-3.49h5.37L32.08,54.36
		L32.08,54.36z M32.79,63.27h3.27V57.5h1c1.34,0.02,1.97,0.52,2.36,2.35c0.43,1.81,0.78,3.01,1.02,3.42h3.38
		c-0.28-0.57-0.74-2.48-1.19-4.14c-0.37-1.35-0.93-2.33-1.95-2.75v-0.07c1.26-0.46,2.58-1.74,2.58-3.62c0-1.35-0.48-2.38-1.34-3.07
		c-1.04-0.83-2.55-1.15-4.72-1.15c-1.75,0-3.33,0.13-4.4,0.3V63.27z M36.07,51.05c0.24-0.04,0.69-0.11,1.5-0.11
		c1.52,0.02,2.42,0.7,2.42,2.05c0,1.29-0.98,2.11-2.62,2.11h-1.3V51.05z"/>
	<path id="Path_193_2_" class="st0" d="M46.11,63.31h3.31V51.42h3.98v-2.79H42.19v2.79h3.92V63.31z M53,63.31h3.27v-5.77h1
		c1.34,0.02,1.97,0.52,2.36,2.35c0.43,1.81,0.78,3.01,1.02,3.42h3.38c-0.28-0.57-0.74-2.48-1.19-4.14
		c-0.37-1.35-0.93-2.33-1.95-2.75v-0.07c1.26-0.46,2.58-1.74,2.58-3.62c0-1.35-0.48-2.38-1.34-3.07c-1.04-0.83-2.55-1.15-4.72-1.15
		c-1.75,0-3.33,0.13-4.4,0.3L53,63.31z M56.27,51.09c0.24-0.04,0.69-0.11,1.5-0.11c1.52,0.02,2.42,0.7,2.42,2.05
		c0,1.29-0.98,2.11-2.62,2.11h-1.3V51.09z M71.44,59.54l1.13,3.77h3.55L71.6,48.63h-4.33L62.8,63.31h3.42l1.04-3.77H71.44z
		 M67.74,57.06l0.87-3.12c0.24-0.85,0.45-1.96,0.67-2.83h0.04c0.22,0.87,0.48,1.96,0.74,2.83l0.91,3.12H67.74z M85.58,60.31
		c-0.65,0.26-1.75,0.48-2.75,0.48c-2.94,0-4.68-1.85-4.68-4.79c0-3.27,2.03-4.86,4.65-4.86c1.17,0,2.1,0.26,2.77,0.55l0.67-2.64
		c-0.59-0.3-1.88-0.66-3.6-0.66c-4.42,0-7.97,2.79-7.97,7.8c0,4.18,2.6,7.34,7.64,7.34c1.78,0,3.14-0.33,3.74-0.63L85.58,60.31z
		 M86.08,63.31h3.27v-4.79l1.26-1.55l3.58,6.34h3.85l-5.09-8.43l4.83-6.25h-4.05l-3.31,4.88c-0.32,0.52-0.67,1.05-1,1.61h-0.07
		v-6.49h-3.27L86.08,63.31L86.08,63.31z"/>
</g>
<g id="Group_3_2_" transform="translate(-929.691 908.5)">
	<path id="Path_14_2_" class="st0" d="M1000.9-868.02c-0.02-0.09-0.05-0.17-0.07-0.25l0,0c-0.54-2.13-2.45-3.7-4.73-3.7
		c-2.7,0-4.88,2.2-4.88,4.91c0,1.5,0.67,2.85,1.73,3.75c0.08,0.06,0.15,0.13,0.23,0.19c0.06,0.05,0.11,0.1,0.18,0.12
		c0.23,0.08,0.6-0.03,0.76-0.22c0.24-0.29,0.22-0.71-0.14-0.96c-0.19-0.13-0.37-0.28-0.53-0.45c-0.61-0.67-0.95-1.55-0.95-2.46
		c0-0.18,0.01-0.36,0.04-0.54c0.02-0.13,0.05-0.25,0.08-0.37c0-0.01,0,0,0-0.01c0.4-1.58,1.81-2.73,3.5-2.73
		c2,0,3.63,1.63,3.63,3.65v0.01c-0.01,0.24-0.03,0.48-0.08,0.72c-0.01,0.07-0.03,0.14-0.05,0.22c-0.1,0.39-0.27,0.76-0.5,1.09
		c-0.21,0.3-0.47,0.56-0.76,0.79c-0.33,0.26-0.37,0.46-0.28,0.76c0.13,0.45,0.68,0.61,1.04,0.32c0.48-0.39,0.9-0.85,1.21-1.4
		C1000.95-865.66,1001.13-866.81,1000.9-868.02z"/>
	<path id="Path_15_2_" class="st0" d="M999.01-867.28c-0.01-0.14-0.03-0.28-0.07-0.42c-0.28-1.36-1.47-2.33-2.85-2.33
		c-1.57,0-2.85,1.26-2.9,2.82c-0.01,0.14-0.02,0.29-0.01,0.43c0.03,0.66,0.41,1.44,1.18,2.05c0.2,0.16,0.54,0.05,0.62-0.2
		c0.06-0.18,0-0.33-0.18-0.46c-0.39-0.29-0.64-0.64-0.77-1.06c-0.05-0.19-0.08-0.39-0.08-0.59c0-1.21,0.97-2.19,2.18-2.19
		c0.98,0,1.84,0.66,2.1,1.61c0.16,0.65,0.01,1.37-0.45,1.9c-0.12,0.14-0.27,0.25-0.4,0.37c-0.15,0.15-0.15,0.38-0.01,0.54
		c0.11,0.13,0.38,0.18,0.54,0.05C998.68-865.42,999.06-866.26,999.01-867.28z"/>
</g>
</svg>
