<?xml version="1.0" encoding="utf-8"?>
<!-- Generator: Adobe Illustrator 24.3.0, SVG Export Plug-In . SVG Version: 6.00 Build 0)  -->
<svg version="1.1" id="Camada_1" xmlns="http://www.w3.org/2000/svg" xmlns:xlink="http://www.w3.org/1999/xlink" x="0px" y="0px"
	 viewBox="0 0 1000 1000" style="enable-background:new 0 0 1000 1000;" xml:space="preserve">

<g>
	<path class="st0" d="M404.5,320.1H151.7c-12.5,0-22.7,10.2-22.7,22.7V380h215c12.5,0,22.7,10.2,22.7,22.7v145.5h37.8
		c12.5,0,22.7-10.2,22.7-22.7V342.8C427.1,330.3,416.9,320.1,404.5,320.1z"/>
	<path class="st1" d="M325.1,398.9H72.4c-12.5,0-22.7,10.2-22.7,22.7v182.8c0,12.5,10.2,22.7,22.7,22.7h22.7c0,17.6,0,35.3,0,52.9
		c17.6-17.6,35.3-35.3,52.9-52.9h177.2c12.5,0,22.7-10.2,22.7-22.7V421.6C347.8,409.1,337.6,398.9,325.1,398.9z M112,542.4
		c-13,0-23.6-10.6-23.6-23.6c0-13,10.6-23.6,23.6-23.6s23.6,10.6,23.6,23.6C135.6,531.8,125,542.4,112,542.4z M198.8,542.4
		c-13,0-23.6-10.6-23.6-23.6c0-13,10.6-23.6,23.6-23.6c13,0,23.6,10.6,23.6,23.6C222.4,531.8,211.8,542.4,198.8,542.4z M285.5,542.4
		c-13,0-23.6-10.6-23.6-23.6c0-13,10.6-23.6,23.6-23.6s23.6,10.6,23.6,23.6C309.1,531.8,298.6,542.4,285.5,542.4z"/>
	<g>
		<path class="st1" d="M467.2,500.6l24.5-29.2c15.6,12.5,33.1,19,51.5,19c11.8,0,18.1-4.1,18.1-10.9v-0.5c0-6.6-5.2-10.2-26.8-15.2
			c-33.8-7.7-59.8-17.2-59.8-49.9v-0.5c0-29.5,23.4-50.8,61.4-50.8c27,0,48.1,7.3,65.3,21.1l-22,31.1
			c-14.5-10.2-30.4-15.6-44.4-15.6c-10.7,0-15.9,4.5-15.9,10.2v0.5c0,7.3,5.4,10.4,27.4,15.4c36.5,7.9,59.2,19.7,59.2,49.4v0.5
			c0,32.4-25.6,51.7-64.2,51.7C513.4,526.9,486.7,518.1,467.2,500.6z"/>
		<path class="st0" d="M627,365.5h46.5l37.9,61.4l37.9-61.4h46.5v158.7h-43.8v-91.1l-40.6,62.1h-0.9l-40.4-61.7v90.7H627V365.5z"/>
		<path class="st1" d="M811.8,500.6l24.5-29.2c15.6,12.5,33.1,19,51.5,19c11.8,0,18.1-4.1,18.1-10.9v-0.5c0-6.6-5.2-10.2-26.7-15.2
			c-33.8-7.7-59.8-17.2-59.8-49.9v-0.5c0-29.5,23.3-50.8,61.4-50.8c27,0,48.1,7.3,65.3,21.1L924,415c-14.5-10.2-30.4-15.6-44.4-15.6
			c-10.7,0-15.9,4.5-15.9,10.2v0.5c0,7.3,5.4,10.4,27.4,15.4c36.5,7.9,59.2,19.7,59.2,49.4v0.5c0,32.4-25.6,51.7-64.2,51.7
			C858,526.9,831.3,518.1,811.8,500.6z"/>
	</g>
	<g>
		<path class="st1" d="M470.3,589v-39.7h8.7V589H470.3z"/>
		<path class="st1" d="M580.1,589h-15.5v-39.7h15.5c12.5,0,21.1,8.6,21.1,19.7v0.1C601.2,580.4,592.6,589,580.1,589z M592.1,569.2
			c0-7-4.8-12-12-12h-6.7v23.9h6.7c7.1,0,12-4.8,12-11.8V569.2z"/>
		<path class="st1" d="M684.7,589v-39.7h29.9v7.8h-21.3v8h18.7v7.8h-18.7v8.3h21.5v7.8H684.7z"/>
		<path class="st1" d="M827.9,589l-3.6-8.9h-16.8l-3.6,8.9H795l17-40h8l17,40H827.9z M815.9,559.6l-5.3,12.9h10.5L815.9,559.6z"/>
		<path class="st1" d="M918.9,589v-39.7h8.7v31.7h19.8v7.9H918.9z"/>
	</g>
</g>
</svg>
